<svg xmlns="http://www.w3.org/2000/svg" viewBox="0 0 500 500">
  <defs>
    <pattern id="grid" width="50" height="50" patternUnits="userSpaceOnUse">
      <path d="M 50 0 L 0 0 0 50" fill="none" stroke="currentColor" stroke-width="0.5" opacity="0.3"/>
    </pattern>
  </defs>
  <rect width="500" height="500" fill="url(#grid)"/>
  <circle cx="100" cy="100" r="30" fill="none" stroke="currentColor" stroke-width="2" opacity="0.6"/>
  <circle cx="400" cy="100" r="40" fill="none" stroke="currentColor" stroke-width="2" opacity="0.6"/>
  <circle cx="250" cy="250" r="50" fill="none" stroke="currentColor" stroke-width="2" opacity="0.6"/>
  <circle cx="100" cy="400" r="35" fill="none" stroke="currentColor" stroke-width="2" opacity="0.6"/>
  <circle cx="400" cy="400" r="45" fill="none" stroke="currentColor" stroke-width="2" opacity="0.6"/>
  <line x1="130" y1="100" x2="200" y2="250" stroke="currentColor" stroke-width="1.5" opacity="0.5"/>
  <line x1="360" y1="100" x2="300" y2="250" stroke="currentColor" stroke-width="1.5" opacity="0.5"/>
  <line x1="250" y1="300" x2="130" y2="400" stroke="currentColor" stroke-width="1.5" opacity="0.5"/>
  <line x1="250" y1="300" x2="360" y2="400" stroke="currentColor" stroke-width="1.5" opacity="0.5"/>
  <rect x="90" y="90" width="20" height="20" fill="currentColor" opacity="0.4"/>
  <rect x="390" y="90" width="20" height="20" fill="currentColor" opacity="0.4"/>
  <rect x="240" y="240" width="20" height="20" fill="currentColor" opacity="0.4"/>
  <rect x="90" y="390" width="20" height="20" fill="currentColor" opacity="0.4"/>
  <rect x="390" y="390" width="20" height="20" fill="currentColor" opacity="0.4"/>
</svg>
